HIERARCHY
ROOT hip
{
	OFFSET 0.000000 0.000000 0.000000 
	CHANNELS 6 Xposition Yposition Zposition Zrotation Xrotation Yrotation
	JOINT abdomen
	{
		OFFSET 0.000000 3.402643 0.000000 
		CHANNELS 3 Zrotation Xrotation Yrotation
		JOINT chest
		{
			OFFSET 0.000000 8.438565 -0.680529 
			CHANNELS 3 Zrotation Xrotation Yrotation
			JOINT neck
			{
				OFFSET 0.000000 10.207942 -0.272212 
				CHANNELS 3 Zrotation Xrotation Yrotation
				JOINT head
				{
					OFFSET 0.000000 3.130431 0.000000 
					CHANNELS 3 Zrotation Xrotation Yrotation
					End Site
					{
						OFFSET 0.000000 3.130435 0.000000 
					}
				}
			}
			JOINT lCollar
			{
				OFFSET 3.470700 6.669187 -0.816635 
				CHANNELS 3 Zrotation Xrotation Yrotation
				JOINT lShldr
				{
					OFFSET 3.198488 0.000000 0.000000 
					CHANNELS 3 Zrotation Xrotation Yrotation
					JOINT lForeArm
					{
						OFFSET 10.139888 0.000000 0.000000 
						CHANNELS 3 Zrotation Xrotation Yrotation
						JOINT lHand
						{
							OFFSET 8.370511 0.000000 0.000000 
							CHANNELS 3 Zrotation Xrotation Yrotation
							End Site
							{
								OFFSET 4.083176 0.000000 0.000000 
							}
						}
					}
				}
			}
			JOINT rCollar
			{
				OFFSET -3.470700 6.669187 -0.816635 
				CHANNELS 3 Zrotation Xrotation Yrotation
				JOINT rShldr
				{
					OFFSET -3.198488 0.000000 0.000000 
					CHANNELS 3 Zrotation Xrotation Yrotation
					JOINT rForeArm
					{
						OFFSET -10.139888 0.000000 0.000000 
						CHANNELS 3 Zrotation Xrotation Yrotation
						JOINT rHand
						{
							OFFSET -8.370511 0.000000 0.000000 
							CHANNELS 3 Zrotation Xrotation Yrotation
							End Site
							{
								OFFSET -4.083176 0.000000 0.000000 
							}
						}
					}
				}
			}
		}
	}
	JOINT lThigh
	{
		OFFSET 5.308129 -1.633274 1.361059 
		CHANNELS 3 Zrotation Xrotation Yrotation
		JOINT lShin
		{
			OFFSET -2.041588 -20.007561 0.000000 
			CHANNELS 3 Zrotation Xrotation Yrotation
			JOINT lFoot
			{
				OFFSET 0.000000 -19.190928 -1.224953 
				CHANNELS 3 Zrotation Xrotation Yrotation
				End Site
				{
					OFFSET 0.000000 -2.449906 4.627600 
				}
			}
		}
	}
	JOINT rThigh
	{
		OFFSET -5.308129 -1.633274 1.361059 
		CHANNELS 3 Zrotation Xrotation Yrotation
		JOINT rShin
		{
			OFFSET 2.041588 -20.007561 0.000000 
			CHANNELS 3 Zrotation Xrotation Yrotation
			JOINT rFoot
			{
				OFFSET 0.000000 -19.190928 -1.224953 
				CHANNELS 3 Zrotation Xrotation Yrotation
				End Site
				{
					OFFSET 0.000000 -2.449906 4.627600 
				}
			}
		}
	}
}
MOTION
Frames: 14
Frame Time: 0.033333
0.943543 31.409431 -7.891992 -0.000010 -0.000010 -0.000000 1.222712 41.341171 -0.495065 0.643486 -9.442779 -0.070097 -0.000000 -0.000003 -0.000000 -0.000000 -18.007811 -0.000000 -5.744444 -0.302156 2.322262 -1.168137 57.357441 -55.366318 1.892163 -78.473351 -20.127779 16.944206 0.318831 -4.864333 5.918143 -0.354350 -2.379826 29.180555 51.636909 26.884129 20.536098 -80.526070 60.503414 -1.055853 -10.810605 -8.828961 35.169071 -53.376366 13.641890 -149.349335 86.933113 141.848190 -22.907309 -35.047840 0.203285 -42.476967 -54.012756 -15.727871 169.855865 85.701439 -162.888412 26.631956 -26.909269 7.517305 
0.855479 32.629745 -7.961186 -0.000010 -0.000010 -0.000000 0.819382 40.290070 -0.383290 0.258360 -10.654190 -0.196331 -0.000000 -0.000003 -0.000000 -0.000000 -18.007811 -0.000000 -5.791890 -0.326901 2.642681 -10.422849 58.398766 -49.092842 9.854728 -78.828033 -8.907333 19.686178 -0.010003 -5.761230 6.167486 -0.443791 -2.747680 30.061584 53.113041 27.206125 18.796017 -79.667183 46.889057 -0.726685 -9.654523 -8.566400 32.940563 -51.135666 11.945158 -41.721779 87.328918 34.445274 -22.034563 -33.277287 1.820368 -39.363743 -52.155167 -13.499900 97.559654 88.926254 -90.784943 25.376898 -25.803425 5.487570 
0.761125 33.850063 -8.030377 -0.000010 -0.000010 -0.000000 0.542843 39.324905 -0.275584 0.000000 -11.748044 -0.263672 -0.000000 -0.000003 -0.000000 -0.000000 -18.007811 -0.000000 -5.500632 -0.285851 2.459322 -17.916662 58.080444 -44.634647 14.102199 -78.494987 -8.077744 22.431763 -0.347593 -6.647242 5.652289 -0.401943 -2.371238 27.265703 53.374599 30.666487 11.375714 -79.326256 42.519028 -0.411734 -8.490496 -8.313146 30.996449 -48.859718 10.550960 -16.947138 83.287354 9.904529 -21.153158 -31.653528 3.282815 -36.545212 -50.188049 -11.621235 18.808844 85.846169 -12.195644 24.163795 -24.581224 3.513852 
0.666770 35.070377 -8.099572 -0.000010 -0.000010 -0.000000 0.273988 38.359051 -0.169997 -0.270426 -12.831891 -0.343263 -0.000000 -0.000003 -0.000000 -0.000000 -18.007811 -0.000000 -5.209247 -0.244898 2.265992 -25.257381 57.572121 -40.275860 18.348633 -78.151825 -7.249889 25.171448 -0.678331 -7.524240 5.146667 -0.365316 -1.993895 24.424740 53.512913 34.134808 4.084550 -78.925484 38.259129 -0.112933 -7.333707 -8.068078 29.246405 -46.511898 9.349860 -11.536877 78.755592 4.848160 -20.332266 -29.797939 4.582162 -34.016399 -48.111862 -10.061786 11.037924 81.812103 -4.596846 23.028168 -23.314415 1.624205 
0.547254 36.440578 -8.193927 -0.000010 -0.000010 -0.000000 -0.134614 37.060471 -0.036080 -0.594405 -14.227781 -0.263382 -0.000000 -0.000003 -0.000000 -0.000000 -18.007811 -0.000000 -5.453031 -0.261963 2.128989 -32.975529 51.745228 -35.160355 22.518250 -75.471207 -3.625454 18.983675 -0.198824 -4.789829 5.412167 -0.316853 -2.002755 23.510977 54.842693 36.577789 -6.961304 -76.716560 25.924505 -0.210258 -9.336226 -8.888940 27.381672 -42.992920 8.153590 -8.545019 71.913681 2.060302 -19.170311 -26.920771 6.227767 -31.515141 -44.984238 -8.758658 8.009041 75.694977 -1.860478 21.414997 -20.967813 -0.222942 
0.427740 38.882290 -8.288280 -0.000010 -0.000010 -0.000000 -0.529458 35.750790 0.084738 -0.922723 -15.613312 -0.209303 -0.000000 -0.000003 -0.000000 -0.000000 -18.007811 -0.000000 -5.697276 -0.267218 2.001776 -39.241810 45.670101 -31.639399 25.537500 -72.739441 -1.141726 12.795203 0.302038 -2.025152 5.677635 -0.269442 -2.021281 22.380329 56.093708 39.221169 -14.270869 -74.120781 17.293247 -0.362520 -11.337630 -9.740957 25.840452 -39.426010 7.237079 -7.274224 65.016853 1.077921 -18.174082 -23.956999 7.667313 -29.356640 -41.748955 -7.732880 7.029464 69.539879 -1.106689 19.959682 -18.550623 -1.912910 
0.779995 42.330051 -5.960876 -0.000010 -0.000010 -0.000000 -1.382804 34.279343 0.310188 -1.685693 -19.211042 -0.300912 -0.000000 -0.000003 -0.000000 -0.000000 -18.007811 -0.000000 -5.697276 -0.267218 2.001776 -9.756300 9.539848 -24.630337 24.208441 -63.022072 -4.719411 12.921075 0.289798 -2.129497 5.599375 -0.270496 -2.060436 2.634022 20.523354 25.713398 -14.879077 -70.289055 14.910770 -0.283710 -10.668436 -9.707437 21.365997 -28.933393 4.397512 -4.766325 49.563862 -0.484519 -16.432623 -19.763947 9.427190 -24.723928 -30.073236 -4.919058 4.188279 52.458626 0.629115 18.742620 -13.871960 -3.469419 
1.132252 45.487083 -3.633470 -0.000010 -0.000010 -0.000000 -2.219249 32.802681 0.489490 -2.500202 -22.802759 -0.501144 -0.000000 -0.000003 -0.000000 -0.000000 -18.007811 -0.000000 -5.697276 -0.267218 2.001776 20.519136 -25.830421 -30.337545 25.059174 -53.437099 -6.558219 13.046868 0.277805 -2.233893 5.520763 -0.281203 -2.099590 -23.898214 -15.383570 28.399157 -14.724440 -66.400375 13.330508 -0.206778 -9.992568 -9.678590 18.428747 -18.030653 3.103145 -3.751411 34.068951 -0.516849 -14.957986 -15.480580 10.869010 -22.104641 -17.994684 -3.518320 3.351183 35.316414 0.260080 17.875975 -9.095142 -4.918695 
0.943543 63.270538 -1.117357 -0.000010 -0.000010 -0.000000 -1.638965 16.399899 0.013642 -2.141359 -17.605642 -0.199087 -0.000000 -0.000003 -0.000000 -0.000000 -12.001954 -0.000000 -5.697276 -0.267218 2.001776 21.147768 -50.650017 -64.127113 15.402948 -61.721249 -18.801546 11.560661 -0.111328 -2.743702 5.509927 -0.310128 -2.099632 -22.805031 -50.302845 54.042831 -0.709510 -69.063637 23.282200 -1.387505 -10.361508 -11.070204 11.713127 -15.243364 2.816412 -3.692777 27.271273 -0.396688 -6.590337 13.756430 8.987652 -16.023638 -5.114124 -2.693892 3.152910 20.719755 0.056603 9.221012 20.281044 -3.245366 
0.666770 72.956055 -0.995746 -0.000010 -0.000010 -0.000000 -1.172779 10.710696 -0.123807 -0.502691 -17.841156 0.021763 -0.000000 -0.000003 -0.000000 -0.000000 -9.003907 -0.000000 -5.697276 -0.267218 2.001776 25.440344 -48.951893 -56.953484 -4.081089 -64.999954 -41.839958 11.719832 -0.125972 -2.459732 5.548715 -0.319422 -2.080050 -14.765326 -51.987728 57.747704 33.571194 -67.834976 55.990810 -1.570266 -11.414164 -11.204282 11.646605 -17.458094 2.614880 -4.092465 32.815620 -0.374755 -6.243533 9.883886 6.431382 -14.568111 -12.163375 -3.114461 3.621138 32.416271 0.139508 7.535235 9.916369 -1.725869 
0.389998 76.957108 -0.874132 -0.000010 -0.000010 -0.000000 -0.725449 5.028897 -0.161014 1.140184 -18.063061 0.246335 -0.000000 -0.000003 -0.000000 -0.000000 -6.005859 -0.000000 -5.687486 -0.267844 2.001814 28.957779 -46.545723 -50.438839 -26.430820 -64.418999 -67.391151 11.882412 -0.149323 -2.172257 5.577305 -0.340002 -2.070237 -6.370235 -53.470261 61.800533 56.988396 -60.617619 77.350067 -1.779271 -12.454522 -11.353880 11.600259 -19.673979 2.484958 -4.512101 38.354733 -0.391088 -5.964462 6.036685 3.954694 -13.264053 -19.308664 -3.165375 4.475969 44.104763 0.174534 6.233583 -0.434806 -1.100079 
0.113225 77.703217 -0.752520 -0.000010 -0.000010 -0.000000 -0.292988 -0.654288 -0.110768 2.776815 -18.270964 0.480556 -0.000000 -0.000003 -0.000000 -0.000000 -3.007811 -0.000000 -5.687486 -0.267844 2.001814 31.629028 -43.534012 -44.658497 -45.183464 -60.053017 -89.033440 12.028770 -0.158069 -1.888230 5.616112 -0.349272 -2.050659 2.371488 -54.724766 66.191063 69.963188 -50.778515 87.728912 -1.977479 -13.507886 -11.498812 11.574149 -21.871763 2.301240 -5.140063 43.861771 -0.139625 -5.684746 2.132333 1.582416 -12.076118 -26.527674 -3.106411 5.983614 55.780132 -0.338777 4.917178 -10.780628 -0.802471 
-0.034597 77.118935 -0.821713 -0.000010 -0.000010 -0.000000 -0.019541 -1.845703 -0.010398 2.222039 -15.740700 0.290948 -0.000000 -0.000003 -0.000000 -0.000000 -2.255857 -0.000000 -5.687486 -0.267844 2.001814 35.337082 -40.192753 -41.664661 -49.329384 -58.498478 -94.752510 12.072618 -0.166624 -1.807810 5.625521 -0.359384 -2.050625 4.602201 -55.002254 67.328209 72.160255 -47.309685 90.582878 -1.613784 -11.685988 -11.440269 11.755954 -23.748690 2.420425 -5.622785 49.894474 0.004738 -5.424228 -1.995200 0.691084 -12.168658 -28.350056 -3.102235 6.433667 59.181942 -0.651872 4.930150 -13.911735 -0.398648 
-0.182417 75.108948 -0.890906 -0.000010 -0.000010 -0.000000 0.254265 -3.046846 0.091640 1.675114 -13.197676 0.138688 -0.000000 -0.000003 -0.000000 -0.000000 -1.503905 -0.000000 -5.687486 -0.267844 2.001814 38.626026 -36.702755 -39.123047 -53.100121 -56.746857 -100.063225 12.104482 -0.163268 -1.738560 5.635373 -0.357809 -2.040873 6.856469 -55.256786 68.498009 74.005325 -43.764008 93.064011 -1.231773 -9.864014 -11.387495 11.973661 -25.635042 2.562299 -6.322892 55.906006 0.332078 -5.169574 -6.218033 -0.173257 -12.262935 -30.146658 -3.323453 7.066496 62.621487 -1.010741 4.668204 -16.860840 -0.018073 
